<?xml version="1.0" encoding="UTF-8" standalone="no"?>
<svg width="400" height="260" viewBox="0 0 400 260" xmlns="http://www.w3.org/2000/svg">
  <!-- Tér X -->
  <path d="M 40 50 C 150 -20, 250 -20, 360 50 C 420 120, 420 180, 360 230 C 250 290, 150 290, 40 230 C -20 180, -20 120, 40 50 Z" fill="#f3f4f6" stroke="#d1d5db" stroke-width="2" stroke-dasharray="8 4" />
  <text x="35" y="55" font-family="sans-serif" font-size="24" font-style="italic" fill="#6b7280" font-weight="bold">X</text>

  <!-- Homotópia felület -->
  <path d="M 100 130 C 170 50, 270 50, 340 130 C 270 210, 170 210, 100 130" fill="#e0e7ff" opacity="0.9" />
  
  <!-- Deformáció rácsvonalak -->
  <path d="M 140 105 Q 220 80, 300 105" fill="none" stroke="#a5b4fc" stroke-width="1.5" stroke-dasharray="4 2" />
  <path d="M 140 155 Q 220 180, 300 155" fill="none" stroke="#a5b4fc" stroke-width="1.5" stroke-dasharray="4 2" />
  <path d="M 180 85 Q 220 130, 180 175" fill="none" stroke="#a5b4fc" stroke-width="1.5" stroke-dasharray="4 2" />
  <path d="M 260 85 Q 220 130, 260 175" fill="none" stroke="#a5b4fc" stroke-width="1.5" stroke-dasharray="4 2" />

  <!-- p út -->
  <path d="M 100 130 C 170 50, 270 50, 340 130" fill="none" stroke="#3b82f6" stroke-width="3" />
  <!-- q út -->
  <path d="M 100 130 C 170 210, 270 210, 340 130" fill="none" stroke="#10b981" stroke-width="3" />
  
  <!-- Pontok -->
  <circle cx="100" cy="130" r="6" fill="#1f2937" />
  <circle cx="340" cy="130" r="6" fill="#1f2937" />

  <!-- Feliratok -->
  <text x="75" y="135" font-family="sans-serif" font-size="22" font-style="italic" fill="#1f2937" font-weight="bold">x</text>
  <text x="355" y="135" font-family="sans-serif" font-size="22" font-style="italic" fill="#1f2937" font-weight="bold">y</text>
  
  <text x="220" y="55" font-family="sans-serif" font-size="22" font-style="italic" fill="#3b82f6" font-weight="bold" text-anchor="middle">p</text>
  <text x="220" y="220" font-family="sans-serif" font-size="22" font-style="italic" fill="#10b981" font-weight="bold" text-anchor="middle">q</text>
  
  <text x="220" y="137" font-family="sans-serif" font-size="26" font-style="italic" fill="#4f46e5" font-weight="bold" text-anchor="middle">H</text>
</svg>
