<?xml version="1.0" encoding="UTF-8" standalone="no"?>
<svg width="860" height="360" viewBox="0 0 860 360" xmlns="http://www.w3.org/2000/svg">
  <defs>
    <marker id="arrow" markerWidth="10" markerHeight="10" refX="8" refY="3" orient="auto" markerUnits="strokeWidth">
      <path d="M 0 0 L 8 3 L 0 6 Z" fill="#374151" />
    </marker>
    <filter id="softShadow" x="-20%" y="-20%" width="140%" height="140%">
      <feDropShadow dx="0" dy="2" stdDeviation="2" flood-color="#111827" flood-opacity="0.14"/>
    </filter>
  </defs>

  <!-- Parameter square -->
  <rect x="58" y="78" width="220" height="170" rx="8" fill="#ffffff" stroke="#d1d5db" stroke-width="2" filter="url(#softShadow)" />
  <path d="M 82 106 L 254 106" stroke="#3b82f6" stroke-width="4" fill="none" marker-end="url(#arrow)" />
  <path d="M 82 220 L 254 220" stroke="#10b981" stroke-width="4" fill="none" marker-end="url(#arrow)" />
  <path d="M 82 106 L 82 220" stroke="#6b7280" stroke-width="2.5" fill="none" stroke-dasharray="6 4" />
  <path d="M 254 106 L 254 220" stroke="#6b7280" stroke-width="2.5" fill="none" stroke-dasharray="6 4" />
  <circle cx="82" cy="106" r="5.5" fill="#111827" />
  <circle cx="254" cy="106" r="5.5" fill="#111827" />
  <circle cx="82" cy="220" r="5.5" fill="#111827" />
  <circle cx="254" cy="220" r="5.5" fill="#111827" />

  <text x="168" y="95" font-family="sans-serif" font-size="22" font-style="italic" font-weight="700" text-anchor="middle" fill="#3b82f6">p</text>
  <text x="168" y="247" font-family="sans-serif" font-size="22" font-style="italic" font-weight="700" text-anchor="middle" fill="#10b981">q</text>
  <text x="58" y="102" font-family="sans-serif" font-size="19" font-style="italic" font-weight="700" text-anchor="end" fill="#111827">x</text>
  <text x="278" y="102" font-family="sans-serif" font-size="19" font-style="italic" font-weight="700" fill="#111827">y</text>
  <text x="58" y="226" font-family="sans-serif" font-size="19" font-style="italic" font-weight="700" text-anchor="end" fill="#111827">x</text>
  <text x="278" y="226" font-family="sans-serif" font-size="19" font-style="italic" font-weight="700" fill="#111827">y</text>
  <text x="168" y="286" font-family="sans-serif" font-size="20" font-weight="700" text-anchor="middle" fill="#374151">I × I</text>
  <text x="286" y="164" font-family="sans-serif" font-size="18" font-style="italic" fill="#6b7280">i</text>
  <text x="168" y="66" font-family="sans-serif" font-size="18" font-style="italic" fill="#6b7280">j</text>

  <!-- Map arrow -->
  <path d="M 320 164 L 430 164" stroke="#374151" stroke-width="2.5" fill="none" marker-end="url(#arrow)" />
  <rect x="312" y="124" width="128" height="34" rx="8" fill="#ffffff" stroke="#e5e7eb" />
  <text x="376" y="147" font-family="monospace" font-size="16" text-anchor="middle" fill="#111827">trunc x y p q</text>

  <!-- Target type X -->
  <path d="M 484 62 C 585 6, 736 12, 806 72 C 872 132, 852 250, 784 302 C 673 362, 528 344, 470 288 C 412 230, 420 120, 484 62 Z"
        fill="#f3f4f6" stroke="#d1d5db" stroke-width="2" stroke-dasharray="9 5" />
  <text x="480" y="62" font-family="sans-serif" font-size="24" font-style="italic" fill="#6b7280" font-weight="700">AddPA</text>

  <!-- Homotopy surface -->
  <path d="M 520 176 C 594 82, 724 82, 798 176 C 724 270, 594 270, 520 176 Z"
        fill="#e0e7ff" opacity="0.92" stroke="#818cf8" stroke-width="2" filter="url(#softShadow)" />
  <path d="M 558 142 Q 660 104, 760 142" fill="none" stroke="#a5b4fc" stroke-width="1.5" stroke-dasharray="5 4" />
  <path d="M 558 210 Q 660 248, 760 210" fill="none" stroke="#a5b4fc" stroke-width="1.5" stroke-dasharray="5 4" />
  <path d="M 610 96 Q 650 176, 610 256" fill="none" stroke="#a5b4fc" stroke-width="1.5" stroke-dasharray="5 4" />
  <path d="M 708 96 Q 668 176, 708 256" fill="none" stroke="#a5b4fc" stroke-width="1.5" stroke-dasharray="5 4" />

  <path d="M 520 176 C 594 82, 724 82, 798 176" fill="none" stroke="#3b82f6" stroke-width="4" />
  <path d="M 520 176 C 594 270, 724 270, 798 176" fill="none" stroke="#10b981" stroke-width="4" />
  <circle cx="520" cy="176" r="7" fill="#111827" />
  <circle cx="798" cy="176" r="7" fill="#111827" />

  <text x="494" y="181" font-family="sans-serif" font-size="22" font-style="italic" font-weight="700" fill="#111827">x</text>
  <text x="814" y="181" font-family="sans-serif" font-size="22" font-style="italic" font-weight="700" fill="#111827">y</text>
  <text x="660" y="87" font-family="sans-serif" font-size="23" font-style="italic" font-weight="700" text-anchor="middle" fill="#3b82f6">p</text>
  <text x="660" y="282" font-family="sans-serif" font-size="23" font-style="italic" font-weight="700" text-anchor="middle" fill="#10b981">q</text>
  <text x="660" y="184" font-family="sans-serif" font-size="25" font-style="italic" font-weight="700" text-anchor="middle" fill="#4f46e5">p ≡ q</text>

  <rect x="535" y="306" width="250" height="34" rx="8" fill="#ffffff" opacity="0.86" stroke="#e5e7eb" />
  <text x="660" y="329" font-family="monospace" font-size="17" text-anchor="middle" fill="#111827">
    trunc : (p q : x ≡ y) → p ≡ q
  </text>
</svg>
